<mxfile host="Electron" modified="2025-06-12T11:37:07.724Z" agent="Mozilla/5.0 (Windows NT 10.0; Win64; x64) AppleWebKit/537.36 (KHTML, like Gecko) draw.io/24.5.3 Chrome/124.0.6367.207 Electron/30.0.6 Safari/537.36" etag="NC9Tw6dBzg--yIKWb96h" version="24.5.3" type="device">
  <diagram id="C5RBs43oDa-KdzZeNtuy" name="Page-1">
    <mxGraphModel dx="3176" dy="2228" grid="1" gridSize="10" guides="1" tooltips="1" connect="1" arrows="1" fold="1" page="1" pageScale="1" pageWidth="827" pageHeight="1169" math="0" shadow="0">
      <root>
        <mxCell id="WIyWlLk6GJQsqaUBKTNV-0" />
        <mxCell id="WIyWlLk6GJQsqaUBKTNV-1" parent="WIyWlLk6GJQsqaUBKTNV-0" />
        <mxCell id="XMgvpOPmqxMs5PxxD4ly-0" value="Kérdés" style="rhombus;whiteSpace=wrap;html=1;" parent="WIyWlLk6GJQsqaUBKTNV-1" vertex="1">
          <mxGeometry x="30" y="110" width="80" height="80" as="geometry" />
        </mxCell>
        <mxCell id="XMgvpOPmqxMs5PxxD4ly-1" value="Lépés" style="rounded=1;whiteSpace=wrap;html=1;" parent="WIyWlLk6GJQsqaUBKTNV-1" vertex="1">
          <mxGeometry x="20" y="200" width="120" height="60" as="geometry" />
        </mxCell>
        <mxCell id="XMgvpOPmqxMs5PxxD4ly-2" value="A lépés lehet, hogy tovább tart" style="rounded=1;whiteSpace=wrap;html=1;dashed=1;dashPattern=12 12;" parent="WIyWlLk6GJQsqaUBKTNV-1" vertex="1">
          <mxGeometry x="140" y="200" width="120" height="60" as="geometry" />
        </mxCell>
        <mxCell id="XMgvpOPmqxMs5PxxD4ly-3" value="" style="endArrow=none;html=1;rounded=0;" parent="WIyWlLk6GJQsqaUBKTNV-1" edge="1">
          <mxGeometry width="50" height="50" relative="1" as="geometry">
            <mxPoint x="348.09" y="265" as="sourcePoint" />
            <mxPoint x="348.09" y="195" as="targetPoint" />
          </mxGeometry>
        </mxCell>
        <mxCell id="XMgvpOPmqxMs5PxxD4ly-4" value="Ez jelöli, hogy ezen lépés&amp;nbsp;&lt;div&gt;vége triggereli a kövi lépést&lt;/div&gt;" style="edgeLabel;html=1;align=center;verticalAlign=middle;resizable=0;points=[];" parent="XMgvpOPmqxMs5PxxD4ly-3" vertex="1" connectable="0">
          <mxGeometry y="-3" relative="1" as="geometry">
            <mxPoint as="offset" />
          </mxGeometry>
        </mxCell>
        <mxCell id="XMgvpOPmqxMs5PxxD4ly-5" value="" style="endArrow=none;html=1;rounded=0;dashed=1;dashPattern=12 12;" parent="WIyWlLk6GJQsqaUBKTNV-1" edge="1">
          <mxGeometry width="50" height="50" relative="1" as="geometry">
            <mxPoint x="504.09" y="325" as="sourcePoint" />
            <mxPoint x="503.09" y="135" as="targetPoint" />
          </mxGeometry>
        </mxCell>
        <mxCell id="XMgvpOPmqxMs5PxxD4ly-6" value="Ez jelöli, ugyanaz,&amp;nbsp;&lt;div&gt;mint a teli vonal,&amp;nbsp;&lt;div&gt;csak a szaggatott&amp;nbsp;&lt;/div&gt;&lt;div&gt;dobozokhoz tartozóan.&amp;nbsp;&lt;/div&gt;&lt;div&gt;&lt;br&gt;&lt;/div&gt;&lt;div&gt;A &quot;lehet, hogy tovább&amp;nbsp;&lt;/div&gt;&lt;div&gt;tart&quot; lépés vége,&amp;nbsp;&lt;/div&gt;&lt;div&gt;ami triggeli a kövi lépést&lt;/div&gt;&lt;/div&gt;" style="edgeLabel;html=1;align=center;verticalAlign=middle;resizable=0;points=[];" parent="XMgvpOPmqxMs5PxxD4ly-5" vertex="1" connectable="0">
          <mxGeometry y="-3" relative="1" as="geometry">
            <mxPoint as="offset" />
          </mxGeometry>
        </mxCell>
        <mxCell id="XMgvpOPmqxMs5PxxD4ly-7" value="Forrás:&amp;nbsp;&lt;a href=&quot;https://confluence.mediso.com/pages/viewpage.action?pageId=334987753&quot;&gt;InterView WorkFlow Server Intended Use - InterView Products - Confluence&lt;/a&gt;&lt;div&gt;&lt;div&gt;UC2: SPECT/CT berenezésnél rutin ClariBasedAC&lt;/div&gt;&lt;div&gt;&lt;br&gt;&lt;/div&gt;&lt;/div&gt;" style="text;html=1;align=center;verticalAlign=middle;resizable=0;points=[];autosize=1;strokeColor=none;fillColor=none;" parent="WIyWlLk6GJQsqaUBKTNV-1" vertex="1">
          <mxGeometry x="125" y="3" width="470" height="60" as="geometry" />
        </mxCell>
        <mxCell id="XMgvpOPmqxMs5PxxD4ly-9" value="páciens1 befekszik a kamerába" style="rounded=1;whiteSpace=wrap;html=1;" parent="WIyWlLk6GJQsqaUBKTNV-1" vertex="1">
          <mxGeometry x="20" y="370" width="120" height="60" as="geometry" />
        </mxCell>
        <mxCell id="XMgvpOPmqxMs5PxxD4ly-10" value="" style="endArrow=none;html=1;rounded=0;entryX=1;entryY=0;entryDx=0;entryDy=0;" parent="WIyWlLk6GJQsqaUBKTNV-1" target="XMgvpOPmqxMs5PxxD4ly-9" edge="1">
          <mxGeometry width="50" height="50" relative="1" as="geometry">
            <mxPoint x="140" y="580" as="sourcePoint" />
            <mxPoint x="410" y="540" as="targetPoint" />
          </mxGeometry>
        </mxCell>
        <mxCell id="XMgvpOPmqxMs5PxxD4ly-11" value="&lt;div&gt;operátor elindítja a&amp;nbsp;SPECT&amp;nbsp; gyűjtést&amp;nbsp;&lt;/div&gt;" style="rounded=1;whiteSpace=wrap;html=1;" parent="WIyWlLk6GJQsqaUBKTNV-1" vertex="1">
          <mxGeometry x="140" y="430" width="230" height="100" as="geometry" />
        </mxCell>
        <mxCell id="XMgvpOPmqxMs5PxxD4ly-12" value="&lt;div&gt;operátor előkészíti a páciens2-t (adattok felvétele)&lt;/div&gt;" style="rounded=1;whiteSpace=wrap;html=1;" parent="WIyWlLk6GJQsqaUBKTNV-1" vertex="1">
          <mxGeometry x="190" y="670" width="120" height="60" as="geometry" />
        </mxCell>
        <mxCell id="XMgvpOPmqxMs5PxxD4ly-17" value="" style="endArrow=none;html=1;rounded=0;" parent="WIyWlLk6GJQsqaUBKTNV-1" edge="1">
          <mxGeometry width="50" height="50" relative="1" as="geometry">
            <mxPoint x="188.57" y="830" as="sourcePoint" />
            <mxPoint x="188.57" y="530" as="targetPoint" />
          </mxGeometry>
        </mxCell>
        <mxCell id="tMKyC4_Pnx9iGbfY_SvJ-0" value="Páciens1 távozik" style="rounded=1;whiteSpace=wrap;html=1;" parent="WIyWlLk6GJQsqaUBKTNV-1" vertex="1">
          <mxGeometry x="790" y="1410" width="190" height="60" as="geometry" />
        </mxCell>
        <mxCell id="tMKyC4_Pnx9iGbfY_SvJ-1" value="NonAC SPECT Rekon&amp;nbsp;" style="rounded=1;whiteSpace=wrap;html=1;" parent="WIyWlLk6GJQsqaUBKTNV-1" vertex="1">
          <mxGeometry x="189" y="914" width="100" height="60" as="geometry" />
        </mxCell>
        <mxCell id="tMKyC4_Pnx9iGbfY_SvJ-2" value="" style="endArrow=none;html=1;rounded=0;entryX=1;entryY=0;entryDx=0;entryDy=0;" parent="WIyWlLk6GJQsqaUBKTNV-1" edge="1">
          <mxGeometry width="50" height="50" relative="1" as="geometry">
            <mxPoint x="609" y="1404" as="sourcePoint" />
            <mxPoint x="609" y="1034" as="targetPoint" />
          </mxGeometry>
        </mxCell>
        <mxCell id="tMKyC4_Pnx9iGbfY_SvJ-3" value="Rekon vége, operátor betölti a reknsturált képeket, fúzionálja, stb: Ideális esetben a távozás előtt legyenek meg a rekon felvételek (3 percen belül, akár MPH-ra is) ellenőrzés céljából" style="rounded=1;whiteSpace=wrap;html=1;" parent="WIyWlLk6GJQsqaUBKTNV-1" vertex="1">
          <mxGeometry x="790" y="1170" width="220" height="110" as="geometry" />
        </mxCell>
        <mxCell id="tMKyC4_Pnx9iGbfY_SvJ-4" value="" style="endArrow=none;html=1;rounded=0;entryX=1;entryY=0;entryDx=0;entryDy=0;" parent="WIyWlLk6GJQsqaUBKTNV-1" edge="1">
          <mxGeometry width="50" height="50" relative="1" as="geometry">
            <mxPoint x="1010" y="1390" as="sourcePoint" />
            <mxPoint x="1010" y="1170" as="targetPoint" />
          </mxGeometry>
        </mxCell>
        <mxCell id="tMKyC4_Pnx9iGbfY_SvJ-5" value="&lt;div&gt;Páciens 2 befekszik a kamerába&lt;/div&gt;" style="rounded=1;whiteSpace=wrap;html=1;" parent="WIyWlLk6GJQsqaUBKTNV-1" vertex="1">
          <mxGeometry x="1010" y="1270" width="120" height="60" as="geometry" />
        </mxCell>
        <mxCell id="tMKyC4_Pnx9iGbfY_SvJ-6" value="CT gyűjtés" style="rounded=1;whiteSpace=wrap;html=1;" parent="WIyWlLk6GJQsqaUBKTNV-1" vertex="1">
          <mxGeometry x="189" y="768" width="100" height="66" as="geometry" />
        </mxCell>
        <mxCell id="tMKyC4_Pnx9iGbfY_SvJ-7" value="&lt;div&gt;output: CT_RAW&lt;/div&gt;" style="text;html=1;align=center;verticalAlign=middle;resizable=0;points=[];autosize=1;strokeColor=none;fillColor=none;" parent="WIyWlLk6GJQsqaUBKTNV-1" vertex="1">
          <mxGeometry x="184" y="832" width="110" height="30" as="geometry" />
        </mxCell>
        <mxCell id="tMKyC4_Pnx9iGbfY_SvJ-8" value="" style="endArrow=none;html=1;rounded=0;entryX=1;entryY=0;entryDx=0;entryDy=0;" parent="WIyWlLk6GJQsqaUBKTNV-1" edge="1">
          <mxGeometry width="50" height="50" relative="1" as="geometry">
            <mxPoint x="289" y="1034" as="sourcePoint" />
            <mxPoint x="289" y="768" as="targetPoint" />
          </mxGeometry>
        </mxCell>
        <mxCell id="tMKyC4_Pnx9iGbfY_SvJ-9" value="CT rekon" style="rounded=1;whiteSpace=wrap;html=1;" parent="WIyWlLk6GJQsqaUBKTNV-1" vertex="1">
          <mxGeometry x="289" y="834" width="140" height="66" as="geometry" />
        </mxCell>
        <mxCell id="tMKyC4_Pnx9iGbfY_SvJ-10" value="&lt;div&gt;input: CT_RAW&lt;/div&gt;&lt;div&gt;outut: CT_RECON&lt;/div&gt;" style="text;html=1;align=center;verticalAlign=middle;resizable=0;points=[];autosize=1;strokeColor=none;fillColor=none;" parent="WIyWlLk6GJQsqaUBKTNV-1" vertex="1">
          <mxGeometry x="289" y="900" width="120" height="40" as="geometry" />
        </mxCell>
        <mxCell id="tMKyC4_Pnx9iGbfY_SvJ-11" value="" style="endArrow=none;html=1;rounded=0;entryX=1;entryY=0;entryDx=0;entryDy=0;" parent="WIyWlLk6GJQsqaUBKTNV-1" edge="1">
          <mxGeometry width="50" height="50" relative="1" as="geometry">
            <mxPoint x="429" y="1134" as="sourcePoint" />
            <mxPoint x="429" y="832" as="targetPoint" />
          </mxGeometry>
        </mxCell>
        <mxCell id="tMKyC4_Pnx9iGbfY_SvJ-12" value="&lt;div&gt;Clari postfilter&lt;/div&gt;" style="rounded=1;whiteSpace=wrap;html=1;" parent="WIyWlLk6GJQsqaUBKTNV-1" vertex="1">
          <mxGeometry x="429" y="1034" width="180" height="60" as="geometry" />
        </mxCell>
        <mxCell id="tMKyC4_Pnx9iGbfY_SvJ-13" value="&lt;div&gt;Input: CT_RECON&lt;/div&gt;&lt;div&gt;Output: CT_RECON_POSTCLARI&lt;/div&gt;" style="text;html=1;align=center;verticalAlign=middle;resizable=0;points=[];autosize=1;strokeColor=none;fillColor=none;" parent="WIyWlLk6GJQsqaUBKTNV-1" vertex="1">
          <mxGeometry x="389" y="1098" width="210" height="40" as="geometry" />
        </mxCell>
        <mxCell id="tMKyC4_Pnx9iGbfY_SvJ-14" value="AC SPECT rekon" style="rounded=1;whiteSpace=wrap;html=1;" parent="WIyWlLk6GJQsqaUBKTNV-1" vertex="1">
          <mxGeometry x="429" y="900" width="120" height="60" as="geometry" />
        </mxCell>
        <mxCell id="tMKyC4_Pnx9iGbfY_SvJ-15" value="&lt;div&gt;Input: SPECT_RAW, CT_RECON&lt;/div&gt;&lt;div&gt;Output: SPECT_RECON_AC&lt;/div&gt;&lt;div&gt;Megjegyzés: prioritást élvezzen a CT_RECON_POSTCLARI-val szemben&lt;/div&gt;" style="text;html=1;align=center;verticalAlign=middle;resizable=0;points=[];autosize=1;strokeColor=none;fillColor=none;" parent="WIyWlLk6GJQsqaUBKTNV-1" vertex="1">
          <mxGeometry x="294" y="960" width="420" height="60" as="geometry" />
        </mxCell>
        <mxCell id="tMKyC4_Pnx9iGbfY_SvJ-16" value="2 operátor esetén a Páciens 2 előbb befekhet a kamerába" style="ellipse;whiteSpace=wrap;html=1;" parent="WIyWlLk6GJQsqaUBKTNV-1" vertex="1">
          <mxGeometry x="1010" y="1360" width="120" height="80" as="geometry" />
        </mxCell>
        <mxCell id="tMKyC4_Pnx9iGbfY_SvJ-18" value="&lt;div&gt;Clari postfilter&lt;/div&gt;" style="rounded=1;whiteSpace=wrap;html=1;" parent="WIyWlLk6GJQsqaUBKTNV-1" vertex="1">
          <mxGeometry x="610" y="1094" width="180" height="60" as="geometry" />
        </mxCell>
        <mxCell id="tMKyC4_Pnx9iGbfY_SvJ-19" value="&lt;div&gt;Input: CT_RECON&lt;/div&gt;&lt;div&gt;Output: CT_RECON_POSTCLARI&lt;/div&gt;" style="text;html=1;align=center;verticalAlign=middle;resizable=0;points=[];autosize=1;strokeColor=none;fillColor=none;" parent="WIyWlLk6GJQsqaUBKTNV-1" vertex="1">
          <mxGeometry x="570" y="1158" width="210" height="40" as="geometry" />
        </mxCell>
        <mxCell id="tMKyC4_Pnx9iGbfY_SvJ-21" value="Ez a scenario abban különbözik az előzőtől, hogy itt több clari post filter is intható?" style="rhombus;whiteSpace=wrap;html=1;" parent="WIyWlLk6GJQsqaUBKTNV-1" vertex="1">
          <mxGeometry x="609" y="1010" width="150" height="84" as="geometry" />
        </mxCell>
        <mxCell id="tMKyC4_Pnx9iGbfY_SvJ-22" value="" style="endArrow=none;html=1;rounded=0;entryX=1;entryY=0;entryDx=0;entryDy=0;" parent="WIyWlLk6GJQsqaUBKTNV-1" edge="1">
          <mxGeometry width="50" height="50" relative="1" as="geometry">
            <mxPoint x="790" y="1464" as="sourcePoint" />
            <mxPoint x="790" y="1094" as="targetPoint" />
          </mxGeometry>
        </mxCell>
        <mxCell id="tMKyC4_Pnx9iGbfY_SvJ-24" style="edgeStyle=orthogonalEdgeStyle;rounded=0;orthogonalLoop=1;jettySize=auto;html=1;exitX=0.5;exitY=0;exitDx=0;exitDy=0;entryX=0;entryY=0.5;entryDx=0;entryDy=0;" parent="WIyWlLk6GJQsqaUBKTNV-1" source="tMKyC4_Pnx9iGbfY_SvJ-23" target="tMKyC4_Pnx9iGbfY_SvJ-6" edge="1">
          <mxGeometry relative="1" as="geometry">
            <mxPoint x="130" y="790" as="targetPoint" />
          </mxGeometry>
        </mxCell>
        <mxCell id="tMKyC4_Pnx9iGbfY_SvJ-25" style="edgeStyle=orthogonalEdgeStyle;rounded=0;orthogonalLoop=1;jettySize=auto;html=1;exitX=0.5;exitY=1;exitDx=0;exitDy=0;entryX=0;entryY=0.5;entryDx=0;entryDy=0;" parent="WIyWlLk6GJQsqaUBKTNV-1" source="tMKyC4_Pnx9iGbfY_SvJ-23" target="tMKyC4_Pnx9iGbfY_SvJ-1" edge="1">
          <mxGeometry relative="1" as="geometry" />
        </mxCell>
        <mxCell id="tMKyC4_Pnx9iGbfY_SvJ-23" value="Ezek közül egyszerre csak az egyik futhat.&lt;div&gt;&lt;br&gt;&lt;/div&gt;" style="ellipse;whiteSpace=wrap;html=1;" parent="WIyWlLk6GJQsqaUBKTNV-1" vertex="1">
          <mxGeometry x="104" y="862" width="80" height="60" as="geometry" />
        </mxCell>
        <mxCell id="tMKyC4_Pnx9iGbfY_SvJ-26" value="Ezt majd alakítsd át az UC1-gyel analógra" style="text;html=1;align=center;verticalAlign=middle;resizable=0;points=[];autosize=1;strokeColor=none;fillColor=none;" parent="WIyWlLk6GJQsqaUBKTNV-1" vertex="1">
          <mxGeometry x="115" y="568" width="250" height="30" as="geometry" />
        </mxCell>
      </root>
    </mxGraphModel>
  </diagram>
</mxfile>
